<mxfile host="app.diagrams.net" agent="Mozilla/5.0 (Windows NT 10.0; Win64; x64) AppleWebKit/537.36 (KHTML, like Gecko) Chrome/127.0.0.0 Safari/537.36 Edg/127.0.0.0" version="24.7.7">
  <diagram name="第 1 页" id="2x0V0OepnEK5kZq6wwCd">
    <mxGraphModel dx="1042" dy="567" grid="1" gridSize="10" guides="1" tooltips="1" connect="1" arrows="1" fold="1" page="1" pageScale="1" pageWidth="827" pageHeight="1169" math="0" shadow="0">
      <root>
        <mxCell id="0" />
        <mxCell id="1" parent="0" />
        <mxCell id="Rm30RS6rHc1cnBJ8gURm-3" style="edgeStyle=orthogonalEdgeStyle;rounded=0;orthogonalLoop=1;jettySize=auto;html=1;" edge="1" parent="1" source="Rm30RS6rHc1cnBJ8gURm-1">
          <mxGeometry relative="1" as="geometry">
            <mxPoint x="340" y="140" as="targetPoint" />
          </mxGeometry>
        </mxCell>
        <mxCell id="Rm30RS6rHc1cnBJ8gURm-1" value="Begin" style="ellipse;whiteSpace=wrap;html=1;" vertex="1" parent="1">
          <mxGeometry x="280" y="30" width="120" height="80" as="geometry" />
        </mxCell>
        <mxCell id="Rm30RS6rHc1cnBJ8gURm-5" style="edgeStyle=orthogonalEdgeStyle;rounded=0;orthogonalLoop=1;jettySize=auto;html=1;exitX=0.5;exitY=1;exitDx=0;exitDy=0;" edge="1" parent="1" source="Rm30RS6rHc1cnBJ8gURm-4">
          <mxGeometry relative="1" as="geometry">
            <mxPoint x="340" y="370" as="targetPoint" />
          </mxGeometry>
        </mxCell>
        <mxCell id="Rm30RS6rHc1cnBJ8gURm-4" value="Grid系统" style="rounded=0;whiteSpace=wrap;html=1;" vertex="1" parent="1">
          <mxGeometry x="280" y="260" width="120" height="60" as="geometry" />
        </mxCell>
        <mxCell id="Rm30RS6rHc1cnBJ8gURm-7" style="edgeStyle=orthogonalEdgeStyle;rounded=0;orthogonalLoop=1;jettySize=auto;html=1;exitX=0.5;exitY=1;exitDx=0;exitDy=0;" edge="1" parent="1" source="Rm30RS6rHc1cnBJ8gURm-6">
          <mxGeometry relative="1" as="geometry">
            <mxPoint x="340" y="480" as="targetPoint" />
          </mxGeometry>
        </mxCell>
        <mxCell id="Rm30RS6rHc1cnBJ8gURm-6" value="初始化UI界面" style="rounded=0;whiteSpace=wrap;html=1;" vertex="1" parent="1">
          <mxGeometry x="280" y="370" width="120" height="60" as="geometry" />
        </mxCell>
        <mxCell id="Rm30RS6rHc1cnBJ8gURm-11" style="edgeStyle=orthogonalEdgeStyle;rounded=0;orthogonalLoop=1;jettySize=auto;html=1;entryX=0.5;entryY=0;entryDx=0;entryDy=0;" edge="1" parent="1" source="Rm30RS6rHc1cnBJ8gURm-10" target="Rm30RS6rHc1cnBJ8gURm-4">
          <mxGeometry relative="1" as="geometry" />
        </mxCell>
        <mxCell id="Rm30RS6rHc1cnBJ8gURm-14" style="edgeStyle=orthogonalEdgeStyle;rounded=0;orthogonalLoop=1;jettySize=auto;html=1;exitX=1;exitY=0.5;exitDx=0;exitDy=0;entryX=0.5;entryY=0;entryDx=0;entryDy=0;" edge="1" parent="1" source="Rm30RS6rHc1cnBJ8gURm-10" target="Rm30RS6rHc1cnBJ8gURm-12">
          <mxGeometry relative="1" as="geometry" />
        </mxCell>
        <mxCell id="Rm30RS6rHc1cnBJ8gURm-10" value="初始化" style="rounded=0;whiteSpace=wrap;html=1;" vertex="1" parent="1">
          <mxGeometry x="280" y="140" width="120" height="60" as="geometry" />
        </mxCell>
        <mxCell id="Rm30RS6rHc1cnBJ8gURm-12" value="PlayerActions" style="rounded=0;whiteSpace=wrap;html=1;" vertex="1" parent="1">
          <mxGeometry x="440" y="260" width="120" height="60" as="geometry" />
        </mxCell>
      </root>
    </mxGraphModel>
  </diagram>
</mxfile>
